<svg xmlns="http://www.w3.org/2000/svg" viewBox="0 0 512 512">
  <rect width="512" height="512" rx="80" fill="#6C63FF"/>
  <path d="M256 100 C256 100, 160 150, 160 200 L160 320 C160 370, 256 410, 256 410 C256 410, 352 370, 352 320 L352 200 C352 150, 256 100, 256 100Z" fill="white" opacity="0.15"/>
  <path d="M256 120 L352 180 L352 320 C352 365 256 400 256 400 C256 400 160 365 160 320 L160 180 Z" fill="none" stroke="white" stroke-width="16" stroke-linejoin="round"/>
  <circle cx="256" cy="240" r="28" fill="white"/>
  <path d="M220 290 Q256 320 292 290" stroke="white" stroke-width="14" fill="none" stroke-linecap="round"/>
  <rect x="224" y="330" width="64" height="12" rx="6" fill="white" opacity="0.7"/>
</svg>
